{"title":"Oblivion 2013 HDRip x264 AAC - ViZNU [P2PDL]","uid":8719154,"size":738065398,"categoryP":"video","categoryS":"movies","magnet":"?xt=urn:btih:d0a05fde42af8fd128785321387f13a793950688&amp;dn=Oblivion+2013+HDRip+x264+AAC+-+ViZNU+%5BP2PDL%5D&amp;tr=udp%3A%2F%2Ftracker.openbittorrent.com%3A80&amp;tr=udp%3A%2F%2Fopen.demonii.com%3A1337&amp;tr=udp%3A%2F%2Ftracker.coppersurfer.tk%3A6969&amp;tr=udp%3A%2F%2Fexodus.desync.com%3A6969","seeders":3,"leechers":1,"uploader":"ValidusVyto","files":-1,"time":1374387202,"description":"_______ Visit us at our Semi Public Bittorrent Community ________\n  &lt;a href=&quot;\nhttp://p2pdl.com&quot; rel=&quot;nofollow&quot; target=&quot;_NEW&quot;&gt;\nhttp://p2pdl.com&lt;/a&gt;  _____________________________ &lt;a href=&quot; http://p2pdl.com&quot; rel=&quot;nofollow&quot; target=&quot;_NEW&quot;&gt; http://p2pdl.com&lt;/a&gt;\n\n\n\nOblivion 2013 HDRip x264 AAC - ViZNU\n\n\nGenre: Action | Adventure | Sci-Fi   \nPlot: A veteran assigned to extract Earth's remaining resources begins to question\nwhat he knows about his mission and himself. \nDirector: Joseph Kosinski\nStars: Tom Cruise, Morgan Freeman, Olga Kurylenko.\nRated: PG-13 for sci-fi action violence, brief strong language, and some sensuality/nudity.\n\n\nIMDb: &lt;a href=&quot;\nhttp://www.imdb.com/title/tt1483013/&quot; rel=&quot;nofollow&quot; target=&quot;_NEW&quot;&gt;\nhttp://www.imdb.com/title/tt1483013/&lt;/a&gt;\n\nTrailer:\n\n\nFormat                         : MPEG-4\nFile size                      : 697 MiB\nDuration                       : 2h 4mn\nOverall bit rate               : 782 Kbps\nSource                         : 720p HDTV DD 2.0 x264-N.E.T\n\nVideo\nFormat                         : AVC\nBit rate                       : 694 Kbps\nWidth                          : 720 pixels\nHeight                         : 400 pixels\nDisplay aspect ratio           : 16:9\nFrame rate mode                : Constant\nFrame rate                     : 29.554 fps\nStream size                    : 618 MiB (89%)\nWriting library                : x264 core 130 r2273\n\nAudio\nFormat                         : AAC\nBit rate                       : 84.0 Kbps\nChannel(s)                     : 2 channels\nChannel positions              : Front: L R\nSampling rate                  : 44.1 KHz\nStream size                    : 74.9 MiB (11%)\nLanguage                       : English\n\nNote: Contains Harcoded Korean subs.\n &lt;a href=&quot;\nhttp://ultraimg.com/images/qIkWc.png&quot; rel=&quot;nofollow&quot; target=&quot;_NEW&quot;&gt;\nhttp://ultraimg.com/images/qIkWc.png&lt;/a&gt; &lt;a href=&quot;\nhttp://ultraimg.com/images/ezr.png&quot; rel=&quot;nofollow&quot; target=&quot;_NEW&quot;&gt;\nhttp://ultraimg.com/images/ezr.png&lt;/a&gt; &lt;a href=&quot;\nhttp://ultraimg.com/images/gDFq.png&quot; rel=&quot;nofollow&quot; target=&quot;_NEW&quot;&gt;\nhttp://ultraimg.com/images/gDFq.png&lt;/a&gt; &lt;a href=&quot;\nhttp://ultraimg.com/images/vKlpD.png&quot; rel=&quot;nofollow&quot; target=&quot;_NEW&quot;&gt;\nhttp://ultraimg.com/images/vKlpD.png&lt;/a&gt; &lt;a href=&quot;\nhttp://ultraimg.com/images/KQWDi.png&quot; rel=&quot;nofollow&quot; target=&quot;_NEW&quot;&gt;\nhttp://ultraimg.com/images/KQWDi.png&lt;/a&gt; &lt;a href=&quot;\nhttp://ultraimg.com/images/BbQfG.png&quot; rel=&quot;nofollow&quot; target=&quot;_NEW&quot;&gt;\nhttp://ultraimg.com/images/BbQfG.png&lt;/a&gt;\n\n\n----------------------------------------------------------------------------------------------------\n\n\nEncoded using revolutionary 10bit encoding, which enables us to provide you more crispier \nand sharper images at small sizes, just make sure you follow our instructions without a fault.\nRecommend to you to use latest version of VLC player. Install K-Lite Codec Pack or shark007 codecs\nin case of any kind of problem in playback (For non-VLC Media Player users). Alternatively, install\nCore AVC codecs, the fastest decoder that there is coupled with Community Center Codec Pack and play\non Windows Media Player Classic. Check sample to be sure.\nEnjoy!\n\nEncoder Notes:Looking For Early Access To Anything You Can Provide DVDScr, R5, DVDR, BluRay, Direct\nAudio, Music Releases and Seedboxes. We require dedicated servers, so as to do more \nand fast releases of movies.\nIf You Got anything to offer please contact us at &quot;&lt;a class=&quot;__cf_email__&quot; href=&quot;/cdn-cgi/l/email-protection&quot; data-cfemail=&quot;9bebe9fcdbf3eee8f3b5f8f4f6&quot;&gt;[email&amp;#160;protected]&lt;/a&gt;&lt;script cf-hash='f9e31' type=&quot;text/javascript&quot;&gt;\n/* &lt;![CDATA[ */!function(){try{var t=&quot;currentScript&quot;in document?document.currentScript:function(){for(var t=document.getElementsByTagName(&quot;script&quot;),e=t.length;e--;)if(t[e].getAttribute(&quot;cf-hash&quot;))return t[e]}();if(t&amp;&amp;t.previousSibling){var e,r,n,i,c=t.previousSibling,a=c.getAttribute(&quot;data-cfemail&quot;);if(a){for(e=&quot;&quot;,r=parseInt(a.substr(0,2),16),n=2;a.length-n;n+=2)i=parseInt(a.substr(n,2),16)^r,e+=String.fromCharCode(i);e=document.createTextNode(e),c.parentNode.replaceChild(e,c)}}}catch(u){}}();/* ]]&gt; */&lt;/script&gt;&quot;.\n\nFace book Fan Page:  \nSearch P2PDL on FB","torrent":{"xt":"urn:btih:d0a05fde42af8fd128785321387f13a793950688","amp;dn":"Oblivion+2013+HDRip+x264+AAC+-+ViZNU+%5BP2PDL%5D","amp;tr":["udp%3A%2F%2Ftracker.openbittorrent.com%3A80","udp%3A%2F%2Fopen.demonii.com%3A1337","udp%3A%2F%2Ftracker.coppersurfer.tk%3A6969","udp%3A%2F%2Fexodus.desync.com%3A6969"],"infoHash":"d0a05fde42af8fd128785321387f13a793950688","infoHashBuffer":{"type":"Buffer","data":[208,160,95,222,66,175,143,209,40,120,83,33,56,127,19,167,147,149,6,136]},"announce":[],"urlList":[]}}